<svg width="24" height="24" viewBox="0 0 24 24" fill="none" xmlns="http://www.w3.org/2000/svg">
<path d="M12 24C18.6274 24 24 18.6274 24 12C24 5.37257 18.6274 0 12 0C5.37258 0 0 5.37257 0 12C0 18.6274 5.37258 24 12 24Z" fill="white"/>
<path fill-rule="evenodd" clip-rule="evenodd" d="M13.7005 7.50134L13.6737 7.51203L13.6835 7.50134H13.7005ZM7.49146 8.63252C8.98291 7.44339 10.3653 7.50044 10.3653 7.50044L10.4768 7.62078C8.65174 8.09767 7.82425 8.99085 7.82425 8.99085C7.82425 8.99085 8.04556 8.8723 8.43205 8.69134C10.8901 7.63237 13.5744 7.70902 16.0594 9.04968C16.0594 9.04968 15.2302 8.21445 13.5175 7.67961L13.6689 7.51649C13.9056 7.51738 15.1586 7.56551 16.4996 8.63964C16.4996 8.63964 18 11.4476 18 14.8972C17.9909 14.8853 17.9548 14.9261 17.8884 15.0014C17.5867 15.3428 16.6595 16.3919 14.8015 16.4358C14.8015 16.4358 14.4174 15.9597 14.144 15.5444C15.4702 15.1273 15.9666 14.2928 15.9666 14.2928C15.6514 14.5104 15.3561 14.6639 15.0949 14.7998C14.9954 14.8515 14.9009 14.9007 14.812 14.9498C14.3279 15.1832 13.8431 15.3009 13.359 15.4183L13.3246 15.4267C11.1332 15.8163 9.8394 15.2333 8.66392 14.7037C8.58071 14.6662 8.49809 14.629 8.41578 14.5924L7.99023 14.3552C7.99023 14.3552 8.48576 15.1896 9.75919 15.6067C9.42472 16.0249 9.09357 16.5 9.09357 16.5C6.82669 16.4411 6 14.89 6 14.89C6 11.435 7.49146 8.63252 7.49146 8.63252ZM13.8469 13.8195C14.4254 13.8195 14.8964 13.2847 14.8964 12.6251C14.8964 11.9698 14.4278 11.435 13.8469 11.435V11.4378C13.2708 11.4378 12.7989 11.9708 12.7972 12.6304C12.7972 13.2847 13.2683 13.8195 13.8469 13.8195ZM11.1389 12.6251C11.1389 13.2847 10.6677 13.8195 10.0892 13.8195C9.51068 13.8195 9.03957 13.2847 9.03957 12.6304C9.03957 11.9708 9.51068 11.4378 10.0892 11.4378L10.0924 11.435C10.671 11.435 11.1389 11.9698 11.1389 12.6251Z" fill="#21222B"/>
</svg>
