<svg t="1648329276948" class="icon" viewBox="0 0 1024 1024" version="1.1"
  xmlns="http://www.w3.org/2000/svg" p-id="2204"
  xmlns:xlink="http://www.w3.org/1999/xlink" width="200" height="200">
  <path d="M515.2 64c-246.4 0-448 198.4-448 444.8S268.8 953.6 512 953.6c246.4 0 444.8-201.6 444.8-444.8S758.4 64 515.2 64z m-118.4 441.6c-9.6 9.6-28.8 9.6-41.6 0l-22.4-25.6-12.8-9.6c-19.2-22.4-32-48-35.2-76.8 0-28.8 9.6-57.6 28.8-76.8 22.4-19.2 48-28.8 76.8-28.8 28.8 0 60.8 12.8 83.2 35.2l86.4 86.4c22.4 22.4 35.2 51.2 35.2 80 0 25.6-9.6 51.2-28.8 70.4-9.6 9.6-28.8 9.6-41.6 0-9.6-9.6-9.6-28.8 0-38.4 19.2-19.2 16-51.2-3.2-73.6l-86.4-86.4c-12.8-12.8-25.6-19.2-41.6-19.2-9.6 0-22.4 3.2-32 12.8-12.8 12.8-12.8 25.6-12.8 35.2 0 12.8 6.4 28.8 19.2 38.4l12.8 12.8 22.4 22.4c3.2 12.8 3.2 28.8-6.4 41.6z m307.2 201.6c-19.2 19.2-44.8 28.8-73.6 28.8-28.8 0-60.8-12.8-83.2-35.2l-86.4-86.4c-22.4-22.4-35.2-51.2-35.2-80 0-25.6 9.6-51.2 28.8-70.4 9.6-9.6 28.8-9.6 41.6 0 9.6 9.6 9.6 28.8 0 38.4-19.2 19.2-16 51.2 3.2 73.6l86.4 86.4c12.8 12.8 25.6 19.2 41.6 19.2 9.6 0 22.4-3.2 32-12.8 12.8-12.8 12.8-25.6 12.8-35.2 0-12.8-6.4-28.8-19.2-38.4l-25.6-25.6-9.6-9.6c-9.6-9.6-9.6-28.8 0-38.4 9.6-9.6 28.8-9.6 41.6 0l12.8 12.8 19.2 19.2c22.4 19.2 35.2 48 35.2 73.6 9.6 32-3.2 57.6-22.4 80z" fill="#2c2c2c" p-id="2205"></path>
</svg>