<svg id="图层_1" data-name="图层 1" xmlns="http://www.w3.org/2000/svg" viewBox="0 0 100 100"><path d="M71,6.5a9,9,0,0,0-9,9V29a9,9,0,0,0-12,1.84,9,9,0,0,0-14,0A9,9,0,0,0,20,36.5v30a27,27,0,0,0,27,27h6a27,27,0,0,0,27-27v-51A9,9,0,0,0,71,6.5Zm-14,25a5,5,0,0,1,5,5v9H61l-9,0h0v-9A5,5,0,0,1,57,31.5Zm-14,0a5,5,0,0,1,5,5v9.71a11,11,0,0,0-3.76,2.45c-.28.28-.54.57-.78.86l-.46,0a5,5,0,0,1-5-5v-8A5,5,0,0,1,43,31.5Zm-19,5a5,5,0,0,1,10,0v8a5,5,0,0,1-10,0v-8Zm52,7v23a23,23,0,0,1-23,23H47a23,23,0,0,1-23-23V52a9,9,0,0,0,12-1.84,9,9,0,0,0,5.45,3.22A11,11,0,0,0,52,67.5h5a2,2,0,0,1,2,2v6h4v-6a6,6,0,0,0-6-6H52a7,7,0,0,1-7-7,7,7,0,0,1,6.24-7H66v-34a5,5,0,0,1,10,0v28Z"/><polygon points="39.25 66.05 32.42 66.36 39 60.56 38.89 58.24 26.8 58.79 26.94 61.76 33.8 61.45 27.19 67.24 27.29 69.6 39.38 69.05 39.25 66.05"/><polygon points="32.02 80.33 34.56 82.19 37.46 78.22 41.47 81.14 42.93 79.14 38.92 76.21 40.22 74.42 44.51 77.55 45.98 75.53 39.15 70.55 32.02 80.33"/><polygon points="47.27 77.36 50.88 77.44 50.64 86.96 53.87 87.04 54.1 77.52 57.71 77.61 57.77 75.03 47.34 74.77 47.27 77.36"/></svg>