<svg width="24" height="24" viewBox="0 0 24 24" fill="none" xmlns="http://www.w3.org/2000/svg">
<path d="M12 24C18.6274 24 24 18.6274 24 12C24 5.37257 18.6274 0 12 0C5.37258 0 0 5.37257 0 12C0 18.6274 5.37258 24 12 24Z" fill="white"/>
<path d="M12.6875 14.7987L10.1875 13.4151C9.8125 13.7296 9.375 13.9182 8.875 13.9182C7.8125 13.9182 7 13.1006 7 12.0314C7 10.9623 7.8125 10.1447 8.875 10.1447C9.4375 10.1447 9.875 10.3962 10.25 10.7107L13.25 9.20126V8.88679C13.25 7.81761 14.0625 7 15.125 7C16.1875 7 17 7.81761 17 8.88679C17 9.95597 16.1875 10.7736 15.125 10.7736C14.625 10.7736 14.1875 10.5849 13.875 10.2704L10.75 11.9057V12.2201L13.3125 13.6667C13.625 13.4151 14.0625 13.2264 14.5 13.2264C15.5625 13.2264 16.375 14.044 16.375 15.1132C16.375 16.1824 15.5625 17 14.5 17C13.4375 17 12.625 16.1824 12.625 15.1132C12.625 15.0503 12.625 14.9245 12.6875 14.7987ZM8.875 12.6604C9.25 12.6604 9.5 12.4088 9.5 12.0314C9.5 11.6541 9.25 11.4025 8.875 11.4025C8.5 11.4025 8.25 11.6541 8.25 12.0314C8.25 12.4088 8.5 12.6604 8.875 12.6604ZM15.125 9.51572C15.5 9.51572 15.75 9.26415 15.75 8.88679C15.75 8.50943 15.5 8.25786 15.125 8.25786C14.75 8.25786 14.5 8.50943 14.5 8.88679C14.5 9.26415 14.75 9.51572 15.125 9.51572ZM14.5 15.805C14.875 15.805 15.125 15.5535 15.125 15.1761C15.125 14.7987 14.875 14.5472 14.5 14.5472C14.125 14.5472 13.875 14.7987 13.875 15.1761C13.875 15.5535 14.125 15.805 14.5 15.805Z" fill="#21222B"/>
</svg>
